<svg xmlns="http://www.w3.org/2000/svg" width="600" height="600"><rect width="600" height="600" x="0" y="0" fill="#FFFFFF" id="background"/><g id="viz"><clipPath id="serieClipPath"><rect x="-50" y="-10" width="600" height="600"/></clipPath><g transform="translate(0,0)"><g transform="translate(50,10)" clip-path="url(#serieClipPath)"><g id="axis"><g transform="translate(0,570)" fill="none" font-size="10" font-family="sans-serif" text-anchor="middle"><path class="domain" stroke="currentColor" d="M0.5,6V0.5H535.5V6"/><g class="tick" opacity="1" transform="translate(0.5,0)"><line stroke="currentColor" y2="6"/><text fill="currentColor" y="9" dy="0.71em">100</text></g><g class="tick" opacity="1" transform="translate(41.65384615384615,0)"><line stroke="currentColor" y2="6"/><text fill="currentColor" y="9" dy="0.71em">110</text></g><g class="tick" opacity="1" transform="translate(82.8076923076923,0)"><line stroke="currentColor" y2="6"/><text fill="currentColor" y="9" dy="0.71em">120</text></g><g class="tick" opacity="1" transform="translate(123.96153846153847,0)"><line stroke="currentColor" y2="6"/><text fill="currentColor" y="9" dy="0.71em">130</text></g><g class="tick" opacity="1" transform="translate(165.1153846153846,0)"><line stroke="currentColor" y2="6"/><text fill="currentColor" y="9" dy="0.71em">140</text></g><g class="tick" opacity="1" transform="translate(206.26923076923077,0)"><line stroke="currentColor" y2="6"/><text fill="currentColor" y="9" dy="0.71em">150</text></g><g class="tick" opacity="1" transform="translate(247.42307692307693,0)"><line stroke="currentColor" y2="6"/><text fill="currentColor" y="9" dy="0.71em">160</text></g><g class="tick" opacity="1" transform="translate(288.57692307692304,0)"><line stroke="currentColor" y2="6"/><text fill="currentColor" y="9" dy="0.71em">170</text></g><g class="tick" opacity="1" transform="translate(329.7307692307692,0)"><line stroke="currentColor" y2="6"/><text fill="currentColor" y="9" dy="0.71em">180</text></g><g class="tick" opacity="1" transform="translate(370.88461538461536,0)"><line stroke="currentColor" y2="6"/><text fill="currentColor" y="9" dy="0.71em">190</text></g><g class="tick" opacity="1" transform="translate(412.03846153846155,0)"><line stroke="currentColor" y2="6"/><text fill="currentColor" y="9" dy="0.71em">200</text></g><g class="tick" opacity="1" transform="translate(453.1923076923077,0)"><line stroke="currentColor" y2="6"/><text fill="currentColor" y="9" dy="0.71em">210</text></g><g class="tick" opacity="1" transform="translate(494.34615384615387,0)"><line stroke="currentColor" y2="6"/><text fill="currentColor" y="9" dy="0.71em">220</text></g><g class="tick" opacity="1" transform="translate(535.5,0)"><line stroke="currentColor" y2="6"/><text fill="currentColor" y="9" dy="0.71em">230</text></g><text x="535" dy="-5" text-anchor="end" style="font-family: Arial, sans-serif; font-size: 12px; fill: rgb(123, 123, 123); font-weight: bold;">Size</text></g><g transform="translate(0,0)" fill="none" font-size="10" font-family="sans-serif" text-anchor="end"><path class="domain" stroke="currentColor" d="M0.5,570.5V0.5"/><g class="tick" opacity="1" transform="translate(0,570.5)"><line stroke="currentColor" x2="-6"/><text fill="currentColor" x="-9" dy="0.32em">0.0</text></g><g class="tick" opacity="1" transform="translate(0,523)"><line stroke="currentColor" x2="-6"/><text fill="currentColor" x="-9" dy="0.32em">0.2</text></g><g class="tick" opacity="1" transform="translate(0,475.49999999999994)"><line stroke="currentColor" x2="-6"/><text fill="currentColor" x="-9" dy="0.32em">0.4</text></g><g class="tick" opacity="1" transform="translate(0,428)"><line stroke="currentColor" x2="-6"/><text fill="currentColor" x="-9" dy="0.32em">0.6</text></g><g class="tick" opacity="1" transform="translate(0,380.5)"><line stroke="currentColor" x2="-6"/><text fill="currentColor" x="-9" dy="0.32em">0.8</text></g><g class="tick" opacity="1" transform="translate(0,332.99999999999994)"><line stroke="currentColor" x2="-6"/><text fill="currentColor" x="-9" dy="0.32em">1.0</text></g><g class="tick" opacity="1" transform="translate(0,285.5)"><line stroke="currentColor" x2="-6"/><text fill="currentColor" x="-9" dy="0.32em">1.2</text></g><g class="tick" opacity="1" transform="translate(0,237.99999999999997)"><line stroke="currentColor" x2="-6"/><text fill="currentColor" x="-9" dy="0.32em">1.4</text></g><g class="tick" opacity="1" transform="translate(0,190.49999999999997)"><line stroke="currentColor" x2="-6"/><text fill="currentColor" x="-9" dy="0.32em">1.6</text></g><g class="tick" opacity="1" transform="translate(0,143)"><line stroke="currentColor" x2="-6"/><text fill="currentColor" x="-9" dy="0.32em">1.8</text></g><g class="tick" opacity="1" transform="translate(0,95.49999999999999)"><line stroke="currentColor" x2="-6"/><text fill="currentColor" x="-9" dy="0.32em">2.0</text></g><g class="tick" opacity="1" transform="translate(0,47.99999999999996)"><line stroke="currentColor" x2="-6"/><text fill="currentColor" x="-9" dy="0.32em">2.2</text></g><g class="tick" opacity="1" transform="translate(0,0.5)"><line stroke="currentColor" x2="-6"/><text fill="currentColor" x="-9" dy="0.32em">2.4</text></g><text x="4" text-anchor="start" dominant-baseline="hanging" style="font-family: Arial, sans-serif; font-size: 12px; fill: rgb(123, 123, 123); font-weight: bold;">Average Time</text></g></g><g id="viz"><g><path d="M4.115384615384616,532.208307915617C8.230769230769232,532.208307915617,8.230769230769232,526.3948712703133,12.346153846153847,526.3948712703133C16.46153846153846,526.3948712703133,16.46153846153846,524.0312912650063,20.576923076923077,524.0312912650063C24.692307692307693,524.0312912650063,24.692307692307693,522.2228800853419,28.80769230769231,522.2228800853419C32.92307692307693,522.2228800853419,32.92307692307693,518.5334533954467,37.03846153846154,518.5334533954467C41.15384615384616,518.5334533954467,41.15384615384616,517.1494051089435,45.269230769230774,517.1494051089435C49.38461538461539,517.1494051089435,49.38461538461539,513.0964854002517,53.5,513.0964854002517C57.61538461538461,513.0964854002517,57.61538461538461,510.87204240441986,61.73076923076923,510.87204240441986C65.84615384615385,510.87204240441986,65.84615384615385,511.2895212517397,69.96153846153847,511.2895212517397C74.07692307692308,511.2895212517397,74.07692307692308,504.62358210702286,78.1923076923077,504.62358210702286C82.30769230769232,504.62358210702286,82.30769230769232,505.7411540861759,86.42307692307693,505.7411540861759C90.53846153846155,505.7411540861759,90.53846153846155,501.10320702121226,94.65384615384616,501.10320702121226C98.76923076923077,501.10320702121226,98.76923076923077,499.418439585524,102.88461538461539,499.418439585524C107,499.418439585524,107,482.6829508960768,111.11538461538463,482.6829508960768C115.23076923076924,482.6829508960768,115.23076923076924,486.8463580478975,119.34615384615385,486.8463580478975C123.46153846153847,486.8463580478975,123.46153846153847,484.5387994555325,127.57692307692308,484.5387994555325C131.69230769230768,484.5387994555325,131.69230769230768,486.2765694675628,135.8076923076923,486.2765694675628C139.9230769230769,486.2765694675628,139.9230769230769,464.2444129380167,144.03846153846152,464.2444129380167C148.15384615384613,464.2444129380167,148.15384615384613,471.48912871878196,152.26923076923077,471.48912871878196C156.3846153846154,471.48912871878196,156.3846153846154,473.76605034020577,160.5,473.76605034020577C164.6153846153846,473.76605034020577,164.6153846153846,460.39971450913777,168.73076923076923,460.39971450913777C172.84615384615384,460.39971450913777,172.84615384615384,450.3765473787451,176.96153846153845,450.3765473787451C181.07692307692307,450.3765473787451,181.07692307692307,445.13938274628026,185.19230769230768,445.13938274628026C189.3076923076923,445.13938274628026,189.3076923076923,432.4327752312337,193.4230769230769,432.4327752312337C197.53846153846155,432.4327752312337,197.53846153846155,426.6131075946014,201.65384615384616,426.6131075946014C205.76923076923077,426.6131075946014,205.76923076923077,437.13769496818895,209.8846153846154,437.13769496818895C214,437.13769496818895,214,434.5389898193463,218.1153846153846,434.5389898193463C222.23076923076923,434.5389898193463,222.23076923076923,408.3040018575527,226.34615384615384,408.3040018575527C230.46153846153845,408.3040018575527,230.46153846153845,436.95015148708745,234.57692307692307,436.95015148708745C238.69230769230768,436.95015148708745,238.69230769230768,407.47158867195316,242.8076923076923,407.47158867195316C246.9230769230769,407.47158867195316,246.9230769230769,417.3451849194652,251.03846153846155,417.3451849194652C255.15384615384616,417.3451849194652,255.15384615384616,382.914641654193,259.2692307692308,382.914641654193C263.38461538461536,382.914641654193,263.38461538461536,398.5337977313662,267.5,398.5337977313662C271.61538461538464,398.5337977313662,271.61538461538464,376.3388317701412,275.7307692307692,376.3388317701412C279.8461538461538,376.3388317701412,279.8461538461538,375.0982112150784,283.96153846153845,375.0982112150784C288.0769230769231,375.0982112150784,288.0769230769231,378.3657662294784,292.1923076923077,378.3657662294784C296.30769230769226,378.3657662294784,296.30769230769226,336.76945364130717,300.4230769230769,336.76945364130717C304.53846153846155,336.76945364130717,304.53846153846155,325.5668844754983,308.65384615384613,325.5668844754983C312.7692307692308,325.5668844754983,312.7692307692308,347.112648205398,316.8846153846154,347.112648205398C321,347.112648205398,321,341.89387522963074,325.1153846153846,341.89387522963074C329.2307692307692,341.89387522963074,329.2307692307692,323.4315626937966,333.34615384615387,323.4315626937966C337.46153846153845,323.4315626937966,337.46153846153845,324.63444120443484,341.57692307692304,324.63444120443484C345.6923076923077,324.63444120443484,345.6923076923077,317.6748024159617,349.8076923076923,317.6748024159617C353.9230769230769,317.6748024159617,353.9230769230769,277.36714428766714,358.0384615384615,277.36714428766714C362.15384615384613,277.36714428766714,362.15384615384613,273.1511435626807,366.2692307692308,273.1511435626807C370.38461538461536,273.1511435626807,370.38461538461536,232.8184701777915,374.5,232.8184701777915C378.61538461538464,232.8184701777915,378.61538461538464,238.97475686381821,382.7307692307692,238.97475686381821C386.8461538461538,238.97475686381821,386.8461538461538,205.2910356405654,390.96153846153845,205.2910356405654C395.0769230769231,205.2910356405654,395.0769230769231,195.44091234342454,399.1923076923077,195.44091234342454C403.30769230769226,195.44091234342454,403.30769230769226,213.23141292300684,407.4230769230769,213.23141292300684C411.53846153846155,213.23141292300684,411.53846153846155,184.0090465052393,415.6538461538462,184.0090465052393C419.7692307692308,184.0090465052393,419.7692307692308,193.10730060079692,423.88461538461536,193.10730060079692C428,193.10730060079692,428,175.96404103858,432.11538461538464,175.96404103858C436.2307692307692,175.96404103858,436.2307692307692,158.87902445507376,440.3461538461538,158.87902445507376C444.46153846153845,158.87902445507376,444.46153846153845,127.68891424034982,448.5769230769231,127.68891424034982C452.6923076923077,127.68891424034982,452.6923076923077,190.6189692949443,456.80769230769226,190.6189692949443C460.9230769230769,190.6189692949443,460.9230769230769,78.0154167227957,465.03846153846155,78.0154167227957C469.1538461538462,78.0154167227957,469.1538461538462,93.65057721235725,473.2692307692308,93.65057721235725C477.38461538461536,93.65057721235725,477.38461538461536,124.21430027350551,481.5,124.21430027350551C485.61538461538464,124.21430027350551,485.61538461538464,12.717757411111224,489.7307692307692,12.717757411111224C493.8461538461538,12.717757411111224,493.8461538461538,16.955805138917793,497.96153846153845,16.955805138917793" stroke="#1f77b4" fill="none"/><text font-family="sans-serif" font-size="10" class="labels" x="489.7307692307692" y="12.717757411111224" dx="0" dy="-4" text-anchor="middle"/></g></g></g><text y="4" x="4" style="font-family: Arial, sans-serif; font-size: 12px; fill: black; font-weight: bold; dominant-baseline: hanging;"/></g><g id="grid"><rect x="0" y="0" width="600" height="600" fill="none" stroke="#ccc"/></g></g></svg>